PathFileType	3	(X/Y/Z)	RCH0000002 BBF 04.c3d
DataRate	CameraRate	NumFrames	NumMarkers	Units	OrigDataRate	OrigDataStartFrame	OrigNumFrames
100.0	100.0	5	23	mm	100.0	443	346
Frame#	Time	T2			MAN			RASI			LPAT			LKNE			LANK			LMED			LHEE			LTOE			RPAT			RKNE			LASI			T10			RPSI			RANK			RTOE			RMED			RHEE			LPSI			RTHI			LTHI			RTIB			LTIB			
		X1	Y1	Z1	X2	Y2	Z2	X3	Y3	Z3	X4	Y4	Z4	X5	Y5	Z5	X6	Y6	Z6	X7	Y7	Z7	X8	Y8	Z8	X9	Y9	Z9	X10	Y10	Z10	X11	Y11	Z11	X12	Y12	Z12	X13	Y13	Z13	X14	Y14	Z14	X15	Y15	Z15	X16	Y16	Z16	X17	Y17	Z17	X18	Y18	Z18	X19	Y19	Z19	X20	Y20	Z20	X21	Y21	Z21	X22	Y22	Z22	X23	Y23	Z23	

443	4.420	39.64759	90.44756	983.49582	172.07903	95.01192	970.21268	148.80003	-26.13745	674.08845	213.29728	111.95855	391.86941	164.56114	167.91417	353.22612	9.16812	184.68566	133.93803	21.04149	113.72624	138.60919	-11.23282	140.06926	172.38473	53.11893	153.20479	105.49224	122.83046	28.38994	385.07995	74.52571	-24.54330	354.47898	156.11692	148.50862	648.50011	64.07712	84.98010	802.07402	45.54216	38.61239	724.30571	10.70556	-18.82217	85.68396	52.47102	20.73278	74.36147	-2.24717	48.04128	101.32788	-34.90009	7.48076	121.81870	47.47243	108.08536	712.21344	105.54539	-97.74087	459.49530	142.12037	237.07420	476.15820	43.86455	-89.36593	237.73295	99.30034	237.04854	267.10534	
444	4.430	49.71640	90.38419	984.81203	182.01006	95.58173	970.43858	156.21965	-27.35152	674.89946	230.81128	110.47110	396.80070	183.48315	166.16437	356.35603	34.59519	181.98289	132.70102	46.52983	110.98003	137.79972	12.92015	137.40066	170.45798	79.65786	150.46641	105.95887	125.05593	26.93876	385.16411	75.89372	-25.53159	355.46001	165.86677	147.25828	649.26326	72.56960	84.68578	803.03105	53.89010	38.97578	724.65008	11.42587	-18.68746	86.60510	53.38936	20.63698	74.73452	-0.86984	48.22160	102.46491	-33.81051	7.92026	123.04231	56.49136	108.37631	712.26282	108.68648	-98.67168	459.98288	156.83491	236.03672	478.06249	43.99577	-89.90409	238.55633	120.74601	234.91017	268.34483	
445	4.440	59.83981	90.28104	985.76216	192.01388	96.08529	970.21286	163.63299	-28.50953	675.43562	247.97792	108.72170	401.38234	202.35357	164.30361	359.18253	60.71593	179.63317	131.10786	72.34711	108.58128	136.70525	37.55074	135.24165	168.14656	106.64023	147.86707	106.14692	127.55585	25.53513	385.11140	77.51407	-26.45286	356.34246	175.69382	146.02264	649.59355	81.05754	84.55406	803.59606	62.24231	39.50415	724.59101	12.10149	-18.55330	87.47797	54.28115	20.51620	75.07587	0.49373	48.40501	103.55823	-32.72255	8.37063	124.26140	65.54690	108.82004	711.81808	111.93062	-99.53216	460.38150	171.69971	234.89967	479.57894	44.26854	-90.37240	239.33247	142.74750	232.85540	269.18041	
446	4.450	70.01311	90.18556	986.33467	202.08789	96.53664	969.55360	171.08633	-29.62797	675.71932	264.69814	106.69138	405.53753	221.03472	162.30685	361.66781	87.40671	177.59050	129.16513	98.41349	106.48321	135.27706	62.56325	133.50566	165.41513	133.97290	145.40514	106.04233	130.32414	24.19211	384.91933	79.39390	-27.31502	357.12635	185.63894	144.77416	649.49675	89.58026	84.59606	803.77024	70.64501	40.17479	724.15772	12.71111	-18.40068	88.30825	55.13117	20.38356	75.38553	1.83361	48.60622	104.60632	-31.65382	8.85600	125.47841	74.68962	109.39211	710.91424	115.31686	-100.33497	460.68586	186.66906	233.62657	480.71499	44.66225	-90.76748	240.06173	165.12466	230.85176	269.63397	
447	4.460	80.23180	90.14518	986.52696	212.22881	96.95501	968.49044	178.63137	-30.72029	675.77232	280.88045	104.36962	409.18849	239.38488	160.15148	363.76900	114.51089	175.78595	126.87520	124.61977	104.61832	133.46990	87.83294	132.08824	162.23345	161.52847	143.05540	105.62679	133.37208	22.92578	384.58565	81.55991	-28.12122	357.80888	195.74021	143.49145	648.99312	98.17790	84.81064	803.56343	79.14633	40.95789	723.38204	13.24573	-18.21661	89.10647	55.93145	20.25074	75.66400	3.14793	48.83534	105.61221	-30.60893	9.39280	126.70170	83.96872	110.06204	709.59571	118.90161	-101.08746	460.88747	201.68767	232.18636	481.47674	45.17788	-91.08643	240.74730	187.67742	228.85709	269.71584	
